<svg width="55" height="55" viewBox="0 0 55 55" fill="none" xmlns="http://www.w3.org/2000/svg">
<path d="M42.8613 41.2715C40.4873 37.1465 36.0293 34.375 30.9375 34.375H24.0625C18.9707 34.375 14.5127 37.1465 12.1387 41.2715C15.9199 45.4824 21.3984 48.125 27.5 48.125C33.6016 48.125 39.0801 45.4717 42.8613 41.2715ZM0 27.5C0 20.2065 2.89731 13.2118 8.05456 8.05456C13.2118 2.89731 20.2065 0 27.5 0C34.7935 0 41.7882 2.89731 46.9454 8.05456C52.1027 13.2118 55 20.2065 55 27.5C55 34.7935 52.1027 41.7882 46.9454 46.9454C41.7882 52.1027 34.7935 55 27.5 55C20.2065 55 13.2118 52.1027 8.05456 46.9454C2.89731 41.7882 0 34.7935 0 27.5ZM27.5 29.2188C29.5513 29.2188 31.5186 28.4039 32.969 26.9534C34.4195 25.5029 35.2344 23.5357 35.2344 21.4844C35.2344 19.4331 34.4195 17.4658 32.969 16.0153C31.5186 14.5649 29.5513 13.75 27.5 13.75C25.4487 13.75 23.4814 14.5649 22.031 16.0153C20.5805 17.4658 19.7656 19.4331 19.7656 21.4844C19.7656 23.5357 20.5805 25.5029 22.031 26.9534C23.4814 28.4039 25.4487 29.2188 27.5 29.2188Z" fill="black"/>
<path d="M42.8613 41.2715C40.4873 37.1465 36.0293 34.375 30.9375 34.375H24.0625C18.9707 34.375 14.5127 37.1465 12.1387 41.2715C15.9199 45.4824 21.3984 48.125 27.5 48.125C33.6016 48.125 39.0801 45.4717 42.8613 41.2715ZM0 27.5C0 20.2065 2.89731 13.2118 8.05456 8.05456C13.2118 2.89731 20.2065 0 27.5 0C34.7935 0 41.7882 2.89731 46.9454 8.05456C52.1027 13.2118 55 20.2065 55 27.5C55 34.7935 52.1027 41.7882 46.9454 46.9454C41.7882 52.1027 34.7935 55 27.5 55C20.2065 55 13.2118 52.1027 8.05456 46.9454C2.89731 41.7882 0 34.7935 0 27.5ZM27.5 29.2188C29.5513 29.2188 31.5186 28.4039 32.969 26.9534C34.4195 25.5029 35.2344 23.5357 35.2344 21.4844C35.2344 19.4331 34.4195 17.4658 32.969 16.0153C31.5186 14.5649 29.5513 13.75 27.5 13.75C25.4487 13.75 23.4814 14.5649 22.031 16.0153C20.5805 17.4658 19.7656 19.4331 19.7656 21.4844C19.7656 23.5357 20.5805 25.5029 22.031 26.9534C23.4814 28.4039 25.4487 29.2188 27.5 29.2188Z" fill="black" fill-opacity="0.2"/>
<path d="M42.8613 41.2715C40.4873 37.1465 36.0293 34.375 30.9375 34.375H24.0625C18.9707 34.375 14.5127 37.1465 12.1387 41.2715C15.9199 45.4824 21.3984 48.125 27.5 48.125C33.6016 48.125 39.0801 45.4717 42.8613 41.2715ZM0 27.5C0 20.2065 2.89731 13.2118 8.05456 8.05456C13.2118 2.89731 20.2065 0 27.5 0C34.7935 0 41.7882 2.89731 46.9454 8.05456C52.1027 13.2118 55 20.2065 55 27.5C55 34.7935 52.1027 41.7882 46.9454 46.9454C41.7882 52.1027 34.7935 55 27.5 55C20.2065 55 13.2118 52.1027 8.05456 46.9454C2.89731 41.7882 0 34.7935 0 27.5ZM27.5 29.2188C29.5513 29.2188 31.5186 28.4039 32.969 26.9534C34.4195 25.5029 35.2344 23.5357 35.2344 21.4844C35.2344 19.4331 34.4195 17.4658 32.969 16.0153C31.5186 14.5649 29.5513 13.75 27.5 13.75C25.4487 13.75 23.4814 14.5649 22.031 16.0153C20.5805 17.4658 19.7656 19.4331 19.7656 21.4844C19.7656 23.5357 20.5805 25.5029 22.031 26.9534C23.4814 28.4039 25.4487 29.2188 27.5 29.2188Z" fill="black" fill-opacity="0.2"/>
<path d="M27.5 29.2188C29.5513 29.2188 31.5186 28.4039 32.969 26.9534C34.4195 25.5029 35.2344 23.5357 35.2344 21.4844C35.2344 19.4331 34.4195 17.4658 32.969 16.0153C31.5186 14.5649 29.5513 13.75 27.5 13.75C25.4487 13.75 23.4814 14.5649 22.031 16.0153C20.5805 17.4658 19.7656 19.4331 19.7656 21.4844C19.7656 23.5357 20.5805 25.5029 22.031 26.9534C23.4814 28.4039 25.4487 29.2188 27.5 29.2188Z" fill="white"/>
<path d="M42.8613 41.2715C40.4873 37.1465 36.0293 34.375 30.9375 34.375H24.0625C18.9707 34.375 14.5127 37.1465 12.1387 41.2715C15.9199 45.4824 21.3984 48.125 27.5 48.125C33.6016 48.125 39.0801 45.4717 42.8613 41.2715Z" fill="white"/>
</svg>
