<svg width="70" height="70" viewBox="0 0 70 70" fill="none" xmlns="http://www.w3.org/2000/svg">
<path d="M33.9062 68.8125C15.1758 68.8125 0 53.6367 0 34.9062C0 16.1758 15.1758 1 33.9062 1C52.6367 1 67.8125 16.1758 67.8125 34.9062C67.8125 53.6367 52.6367 68.8125 33.9062 68.8125ZM18.334 37.2305L36.8594 55.7559C38.1445 57.041 40.2227 57.041 41.4941 55.7559L43.8184 53.4316C45.1035 52.1465 45.1035 50.0684 43.8184 48.7969L29.9277 34.9062L43.8184 21.0156C45.1035 19.7305 45.1035 17.6523 43.8184 16.3809L41.4941 14.0566C40.209 12.7715 38.1309 12.7715 36.8594 14.0566L18.334 32.582C17.0488 33.8672 17.0488 35.9453 18.334 37.2305Z" fill="#1A3E7F"/>
</svg>
