<svg width="18" height="19" viewBox="0 0 18 19" fill="none" xmlns="http://www.w3.org/2000/svg">
<path d="M5 0C5.69141 0 6.25 0.558594 6.25 1.25V2.5H11.25V1.25C11.25 0.558594 11.8086 0 12.5 0C13.1914 0 13.75 0.558594 13.75 1.25V2.5H15C16.3789 2.5 17.5 3.62109 17.5 5V16.25C17.5 17.6289 16.3789 18.75 15 18.75H2.5C1.12109 18.75 0 17.6289 0 16.25V5C0 3.62109 1.12109 2.5 2.5 2.5H3.75V1.25C3.75 0.558594 4.30859 0 5 0ZM2.5 9.375V10.625C2.5 10.9688 2.78125 11.25 3.125 11.25H4.375C4.71875 11.25 5 10.9688 5 10.625V9.375C5 9.03125 4.71875 8.75 4.375 8.75H3.125C2.78125 8.75 2.5 9.03125 2.5 9.375ZM7.5 9.375V10.625C7.5 10.9688 7.78125 11.25 8.125 11.25H9.375C9.71875 11.25 10 10.9688 10 10.625V9.375C10 9.03125 9.71875 8.75 9.375 8.75H8.125C7.78125 8.75 7.5 9.03125 7.5 9.375ZM13.125 8.75C12.7812 8.75 12.5 9.03125 12.5 9.375V10.625C12.5 10.9688 12.7812 11.25 13.125 11.25H14.375C14.7188 11.25 15 10.9688 15 10.625V9.375C15 9.03125 14.7188 8.75 14.375 8.75H13.125ZM2.5 14.375V15.625C2.5 15.9688 2.78125 16.25 3.125 16.25H4.375C4.71875 16.25 5 15.9688 5 15.625V14.375C5 14.0312 4.71875 13.75 4.375 13.75H3.125C2.78125 13.75 2.5 14.0312 2.5 14.375ZM8.125 13.75C7.78125 13.75 7.5 14.0312 7.5 14.375V15.625C7.5 15.9688 7.78125 16.25 8.125 16.25H9.375C9.71875 16.25 10 15.9688 10 15.625V14.375C10 14.0312 9.71875 13.75 9.375 13.75H8.125ZM12.5 14.375V15.625C12.5 15.9688 12.7812 16.25 13.125 16.25H14.375C14.7188 16.25 15 15.9688 15 15.625V14.375C15 14.0312 14.7188 13.75 14.375 13.75H13.125C12.7812 13.75 12.5 14.0312 12.5 14.375Z" fill="#1A3E7F"/>
</svg>
