<svg width="213" height="213" viewBox="0 0 213 213" fill="none" xmlns="http://www.w3.org/2000/svg">
<path d="M206.104 36.2718C214.397 27.9792 214.397 14.512 206.104 6.21945C197.812 -2.07315 184.344 -2.07315 176.052 6.21945L106.195 76.1426L36.2718 6.28579C27.9792 -2.00681 14.512 -2.00681 6.21945 6.28579C-2.07315 14.5784 -2.07315 28.0456 6.21945 36.3382L76.1426 106.195L6.28579 176.118C-2.00681 184.411 -2.00681 197.878 6.28579 206.171C14.5784 214.463 28.0456 214.463 36.3382 206.171L106.195 136.247L176.118 206.104C184.411 214.397 197.878 214.397 206.171 206.104C214.463 197.812 214.463 184.344 206.171 176.052L136.247 106.195L206.104 36.2718Z" fill="#D60000"/>
</svg>
