<svg width="29" height="29" viewBox="0 0 29 29" fill="none" xmlns="http://www.w3.org/2000/svg">
<path d="M4.12749 0.71528C3.18385 -0.228361 1.65137 -0.228361 0.707731 0.71528C-0.23591 1.65892 -0.23591 3.1914 0.707731 4.13504L11.0802 14.5L0.71528 24.8725C-0.228361 25.8161 -0.228361 27.3486 0.71528 28.2923C1.65892 29.2359 3.1914 29.2359 4.13504 28.2923L14.5 17.9198L24.8725 28.2847C25.8162 29.2284 27.3486 29.2284 28.2923 28.2847C29.2359 27.3411 29.2359 25.8086 28.2923 24.865L17.9198 14.5L28.2847 4.12749C29.2284 3.18385 29.2284 1.65137 28.2847 0.707731C27.3411 -0.23591 25.8086 -0.23591 24.865 0.707731L14.5 11.0802L4.12749 0.71528Z" fill="#9F0003"/>
</svg>
