<svg width="24" height="32" viewBox="0 0 24 32" fill="none" xmlns="http://www.w3.org/2000/svg">
<path d="M0.00624837 11.7188C0.00624837 5.24427 5.37985 0 12.0031 0C18.6264 0 24 5.24427 24 11.7188C24 19.1317 16.4895 28.0171 13.3528 31.4035C12.6155 32.1988 11.3845 32.1988 10.6472 31.4035C7.51054 28.0171 0 19.1317 0 11.7188H0.00624837ZM12.0031 15.9068C13.0637 15.9068 14.0809 15.4878 14.8308 14.742C15.5808 13.9963 16.0021 12.9848 16.0021 11.9301C16.0021 10.8754 15.5808 9.86392 14.8308 9.11815C14.0809 8.37237 13.0637 7.9534 12.0031 7.9534C10.9425 7.9534 9.92538 8.37237 9.17543 9.11815C8.42548 9.86392 8.00417 10.8754 8.00417 11.9301C8.00417 12.9848 8.42548 13.9963 9.17543 14.742C9.92538 15.4878 10.9425 15.9068 12.0031 15.9068Z" fill="#D60000"/>
</svg>
