<svg width="34" height="26" viewBox="0 0 34 26" fill="none" xmlns="http://www.w3.org/2000/svg">
<path d="M4.07734 0C1.82617 0 0 1.82617 0 4.07734C0 4.13711 0 4.19023 0.00664063 4.25H0V21.25C0 23.5941 1.90586 25.5 4.25 25.5H29.75C32.0941 25.5 34 23.5941 34 21.25V4.25H33.9934C33.9934 4.19023 34 4.13711 34 4.07734C34 1.82617 32.1738 0 29.9227 0H4.07734ZM30.8125 8.51992V21.25C30.8125 21.8344 30.3344 22.3125 29.75 22.3125H4.25C3.66563 22.3125 3.1875 21.8344 3.1875 21.25V8.51992L13.4672 16.316C15.5523 17.9031 18.441 17.9031 20.5328 16.316L30.8125 8.51992ZM3.1875 4.07734C3.1875 3.58594 3.58594 3.1875 4.07734 3.1875H29.9227C30.4141 3.1875 30.8125 3.58594 30.8125 4.07734C30.8125 4.35625 30.6797 4.62188 30.4605 4.78789L18.607 13.7793C17.6574 14.4965 16.3426 14.4965 15.393 13.7793L3.53945 4.78789C3.32031 4.62188 3.1875 4.35625 3.1875 4.07734Z" fill="#1E3B20"/>
</svg>
