<svg width="30" height="30" viewBox="0 0 30 30" fill="none" xmlns="http://www.w3.org/2000/svg">
<path d="M7.1151 0.601916C7.92898 1.21404 8.45247 2.13092 9.01134 2.96502C9.25583 3.32638 9.50767 3.68251 9.75887 4.03921C9.94913 4.31098 10.1389 4.58307 10.3287 4.85522C10.3707 4.91528 10.4127 4.97535 10.456 5.03723C11.1781 6.07318 11.7005 6.97461 11.5362 8.27617C11.3402 9.31 10.8049 10.0791 9.96274 10.6771C9.90861 10.7163 9.85449 10.7555 9.79873 10.7959C9.47827 11.0271 9.15315 11.2497 8.82316 11.467C8.95745 11.898 9.22349 12.2152 9.49749 12.5654C9.57088 12.6602 9.57088 12.6602 9.64574 12.7569C10.2096 13.4825 10.787 14.1907 11.4062 14.8703C11.5657 15.0464 11.7213 15.2253 11.876 15.4058C12.1522 15.7239 12.4493 16.0177 12.7493 16.3133C12.888 16.4545 13.0134 16.5951 13.1358 16.7501C13.3491 17.0018 13.5775 17.2035 13.8281 17.4167C14.0177 17.5844 14.1931 17.7612 14.3695 17.9427C14.7043 18.2823 15.0596 18.5834 15.4332 18.8793C15.639 19.0481 15.8359 19.2214 16.0331 19.3998C16.4361 19.7602 16.8588 20.0881 17.2916 20.4116C17.3645 20.4671 17.4373 20.5226 17.5124 20.5797C17.5832 20.6328 17.6539 20.6858 17.7268 20.7405C17.7899 20.788 17.853 20.8354 17.918 20.8843C18.1141 21.0126 18.3054 21.0959 18.5253 21.1753C18.5649 21.1166 18.5649 21.1166 18.6054 21.0567C19.4065 19.8782 20.0544 18.9636 21.4526 18.4972C23.1541 18.3238 24.1452 18.9503 25.4842 19.9193C25.8898 20.2105 26.301 20.4935 26.7114 20.7778C26.8734 20.8908 27.0353 21.0038 27.1972 21.1168C27.4639 21.3029 27.7313 21.4878 28.0003 21.6706C28.9356 22.3118 29.671 23.0024 29.9511 24.1451C30.1405 25.3657 29.7662 26.4572 29.0637 27.4523C27.9294 28.9082 26.4645 29.6574 24.6498 29.9262C20.7535 30.3866 16.8937 28.6228 13.6742 26.6154C13.6228 26.5834 13.5715 26.5514 13.5186 26.5184C12.4603 25.8511 11.4604 25.0676 10.4959 24.272C10.373 24.1708 10.373 24.1708 10.2476 24.0677C8.90909 22.9557 7.60573 21.7527 6.48127 20.4221C6.41065 20.3422 6.34003 20.2622 6.26728 20.1799C5.20631 18.974 4.24515 17.6787 3.38664 16.3212C3.35634 16.2735 3.32605 16.2259 3.29483 16.1769C1.17698 12.8224 -0.648046 8.56208 0.22207 4.52034C0.612854 2.87581 1.51952 1.58044 2.9438 0.678213C4.29277 -0.145392 5.75173 -0.275102 7.1151 0.601916Z" fill="black"/>
</svg>
