<svg width="25" height="25" viewBox="0 0 25 25" fill="none" xmlns="http://www.w3.org/2000/svg">
<path d="M22.2031 1.47265C22.5859 1.33593 23.0078 1.43359 23.2969 1.71875C23.5859 2.0039 23.6797 2.42968 23.543 2.8125L16.5898 22.2227C16.3945 22.7656 15.8828 23.125 15.3086 23.125C14.7539 23.125 14.2539 22.7891 14.0469 22.2773L11.5391 16.1055C11.3633 15.6758 11.4414 15.1836 11.7422 14.832L15.4336 10.4414C15.6328 10.2031 15.6172 9.85546 15.3984 9.63671C15.1797 9.41796 14.8281 9.40234 14.5938 9.60156L10.2031 13.2852C9.84766 13.582 9.35938 13.6602 8.92969 13.4883L2.73828 10.9687C2.22656 10.7617 1.89062 10.2617 1.89062 9.70703C1.89062 9.13281 2.25 8.62109 2.79297 8.42578L22.2031 1.47265Z" fill="#1A3E7F"/>
</svg>
