<svg width="213" height="213" viewBox="0 0 213 213" fill="none" xmlns="http://www.w3.org/2000/svg">
<rect x="46.1949" y="46.1951" width="120" height="120" rx="60" fill="#1A3E7F"/>
<circle opacity="0.25" cx="106.195" cy="106.195" r="16" fill="#1A3E7F"/>
<circle opacity="0.5" cx="106.195" cy="106.195" r="38" fill="#1A3E7F"/>
<path d="M138.219 76.1356C140.358 77.7101 140.836 80.7381 139.281 82.903L100.994 136.195C100.171 137.345 98.9002 138.057 97.4943 138.178C96.0885 138.299 94.7275 137.769 93.7404 136.77L74.5971 117.391C72.7276 115.499 72.7276 112.425 74.5971 110.533C76.4665 108.64 79.5025 108.64 81.372 110.533L96.5521 125.9L131.549 77.1954C133.104 75.0304 136.095 74.5459 138.234 76.1205L138.219 76.1356Z" fill="white"/>
</svg>
