<svg width="70" height="70" viewBox="0 0 70 70" fill="none" xmlns="http://www.w3.org/2000/svg">
<g clip-path="url(#clip0_343_1694)">
<path d="M35 0C54.3347 0 70 15.6653 70 35C70 54.3347 54.3347 70 35 70C15.6653 70 0 54.3347 0 35C0 15.6653 15.6653 0 35 0ZM51.0746 32.6008L31.9516 13.4778C30.625 12.1512 28.4798 12.1512 27.1673 13.4778L24.7681 15.877C23.4415 17.2036 23.4415 19.3488 24.7681 20.6613L39.1069 35L24.7681 49.3387C23.4415 50.6653 23.4415 52.8105 24.7681 54.123L27.1673 56.5222C28.494 57.8488 30.6391 57.8488 31.9516 56.5222L51.0746 37.3992C52.4012 36.0726 52.4012 33.9274 51.0746 32.6008Z" fill="#1A3E7F"/>
</g>
<defs>
<clipPath id="clip0_343_1694">
<rect width="70" height="70" fill="white"/>
</clipPath>
</defs>
</svg>
